<?xml version="1.0" standalone="no"?>
<!DOCTYPE svg PUBLIC "-//W3C//DTD SVG 20010904//EN"
 "http://www.w3.org/TR/2001/REC-SVG-20010904/DTD/svg10.dtd">
<svg version="1.0" xmlns="http://www.w3.org/2000/svg"
 width="512.000000pt" height="512.000000pt" viewBox="0 0 512.000000 512.000000"
 preserveAspectRatio="xMidYMid meet">
<metadata>
Created by potrace 1.14, written by Peter Selinger 2001-2017
</metadata>
<g transform="translate(0.000000,512.000000) scale(0.100000,-0.100000)"
fill="#000000" stroke="none">
<path d="M4943 4584 c-76 -15 -357 -94 -373 -104 -6 -4 -12 -19 -14 -33 -1
-14 -9 -33 -16 -42 -10 -12 -11 -22 -4 -33 6 -9 20 -33 32 -52 l21 -36 -47
-37 c-26 -21 -123 -112 -217 -202 -93 -90 -195 -183 -225 -207 -30 -23 -64
-51 -75 -61 -38 -35 -291 -205 -443 -298 -391 -240 -637 -406 -737 -494 -16
-15 -49 -43 -72 -62 l-42 -34 -43 40 c-44 40 -137 110 -530 394 -266 192 -583
430 -621 466 -16 14 -35 38 -43 54 -25 46 -56 37 -204 -63 -47 -32 -120 -85
-162 -118 -67 -52 -100 -79 -208 -172 -10 -9 -55 -49 -100 -90 -45 -41 -91
-83 -103 -93 -12 -10 -44 -40 -72 -66 -173 -162 -400 -340 -552 -433 -46 -29
-86 -55 -89 -60 -3 -4 -2 -17 1 -28 10 -33 34 -27 180 41 101 47 314 195 430
300 126 113 190 172 276 254 81 78 160 147 339 299 32 26 222 156 230 156 3 0
14 -16 24 -35 30 -54 120 -138 241 -222 279 -194 660 -476 760 -561 61 -52
130 -106 155 -120 25 -15 51 -32 58 -39 7 -7 21 -13 29 -13 14 0 82 49 123 89
60 58 347 256 575 395 292 179 341 210 427 267 83 56 250 177 303 220 26 21
231 196 270 230 139 122 208 178 233 193 12 7 30 -7 77 -58 79 -85 92 -85 155
4 90 128 230 391 230 434 0 45 -58 55 -177 30z"/>
<path d="M4275 3319 c-106 -17 -258 -26 -491 -28 -76 -1 -87 -14 -84 -97 1
-38 3 -85 5 -104 1 -19 5 -73 9 -120 3 -47 8 -94 10 -105 2 -11 7 -54 10 -95
4 -41 13 -124 21 -185 8 -60 17 -135 20 -165 3 -30 8 -71 10 -90 3 -19 8 -62
11 -95 2 -33 7 -76 9 -95 3 -31 16 -155 30 -290 10 -97 16 -191 20 -330 3 -80
6 -153 8 -163 7 -37 21 -40 134 -28 123 13 206 19 278 22 96 3 101 13 110 219
6 142 14 297 20 385 21 327 28 897 13 1080 -9 108 -19 200 -23 223 -2 9 -4 25
-4 34 -1 15 -25 29 -56 33 -5 1 -32 -2 -60 -6z m-15 -119 c36 -19 61 -93 75
-225 7 -61 8 -396 1 -485 -3 -36 -8 -119 -11 -185 -6 -135 -14 -278 -20 -375
-9 -149 -16 -269 -20 -337 -4 -87 -13 -105 -62 -128 -47 -23 -94 -32 -203 -41
l-86 -6 1 233 c0 201 -7 350 -19 449 -2 14 -7 56 -10 93 -4 37 -9 76 -11 85
-1 9 -6 44 -9 77 -7 60 -11 90 -20 155 -10 68 -27 216 -32 265 -3 28 -7 61
-10 75 -2 14 -7 70 -11 125 -5 90 -4 105 16 142 23 46 64 73 121 80 19 3 36 6
37 7 9 8 258 4 273 -4z"/>
<path d="M1448 3215 c-9 -9 -194 -18 -352 -17 -98 1 -186 -3 -196 -8 -20 -11
-28 -43 -38 -160 -9 -108 -9 -535 1 -750 7 -178 9 -527 2 -600 -2 -25 -6 -74
-10 -110 -3 -36 -10 -93 -16 -128 -13 -75 -3 -96 45 -89 17 2 55 -2 86 -9 30
-7 78 -15 105 -19 66 -8 286 -8 308 0 17 7 25 25 31 71 11 85 27 204 32 239 4
22 8 54 10 70 1 17 5 46 8 65 2 19 7 58 11 85 3 28 10 75 15 105 5 30 12 82
15 115 4 33 9 76 11 95 8 53 12 97 20 190 3 47 8 94 10 105 7 30 6 443 0 495
-3 25 -8 68 -11 95 -9 95 -17 134 -30 145 -13 11 -50 21 -57 15z m-45 -124 c7
-5 21 -34 32 -63 18 -47 20 -79 20 -268 0 -269 -9 -383 -70 -845 -2 -16 -7
-50 -10 -75 -3 -25 -7 -52 -10 -60 -2 -8 -7 -44 -10 -80 -9 -94 -33 -189 -56
-226 -43 -70 -151 -81 -327 -33 -31 9 -41 16 -38 28 4 16 11 49 21 106 20 121
27 467 12 695 -14 228 -21 377 -21 510 -1 146 9 191 63 277 l26 43 155 2 c183
4 197 3 213 -11z"/>
<path d="M1761 3154 c-41 -7 -80 -19 -87 -26 -8 -9 -14 -106 -18 -338 -4 -179
-10 -370 -13 -425 -10 -141 -9 -605 0 -695 18 -178 47 -343 62 -358 8 -9 141
-8 310 1 94 5 133 11 144 22 12 12 15 56 17 242 2 241 14 724 19 783 2 19 6
76 10 125 4 50 9 99 11 109 7 38 7 272 0 326 -25 180 -110 251 -295 249 -47
-1 -119 -7 -160 -15z m257 -88 c46 -24 84 -98 99 -193 10 -61 10 -360 0 -478
-13 -160 -18 -210 -23 -235 -6 -31 -14 -284 -17 -522 -3 -233 -5 -236 -215
-241 -107 -2 -112 -2 -112 18 -1 11 -4 63 -8 115 -4 52 -7 221 -6 375 0 244 3
359 20 690 2 39 4 135 5 215 1 155 11 200 51 229 55 39 157 53 206 27z"/>
<path d="M3370 2899 c-189 -19 -288 -88 -326 -227 -17 -60 -19 -106 -18 -437
0 -365 10 -767 19 -814 2 -13 -2 -36 -10 -51 -12 -24 -12 -30 2 -49 14 -21 20
-22 102 -16 47 3 165 8 261 10 96 3 185 7 197 10 14 3 26 16 30 33 4 15 7 362
7 771 l-2 745 -21 17 c-23 19 -105 21 -241 8z m130 -109 c10 -5 23 -25 28 -42
7 -21 10 -267 10 -655 0 -621 0 -622 -22 -641 -34 -32 -91 -43 -260 -49 l-158
-6 6 99 c3 55 8 263 11 464 7 502 12 596 30 658 34 112 137 180 278 181 32 1
67 -3 77 -9z"/>
<path d="M388 2685 c-2 -1 -51 -5 -110 -8 -59 -4 -116 -12 -128 -19 -20 -13
-20 -21 -21 -388 -1 -384 -3 -472 -14 -595 -12 -137 -15 -280 -6 -294 11 -17
72 -28 203 -38 169 -12 251 -8 305 12 26 11 58 18 70 16 42 -5 76 108 77 254
0 80 -2 142 -19 435 -11 180 -15 265 -21 425 -5 136 -9 174 -22 188 -14 16
-33 18 -164 16 -81 -1 -149 -3 -150 -4z m230 -100 c4 -3 8 -81 17 -280 4 -77
8 -160 10 -185 5 -65 7 -278 6 -491 l-2 -186 -47 -2 c-150 -6 -424 -3 -431 5
-6 5 -2 40 10 89 10 44 21 105 25 135 3 30 7 57 10 61 10 17 18 258 16 526 -2
342 -9 316 81 332 39 7 298 4 305 -4z"/>
<path d="M2538 2658 c-133 -17 -212 -80 -249 -198 -19 -61 -20 -96 -24 -540
-2 -311 0 -487 7 -510 14 -46 46 -80 75 -80 14 0 23 -6 23 -15 0 -26 75 -35
195 -22 39 4 86 12 105 17 19 5 51 12 70 15 37 6 100 25 100 29 0 2 4 25 9 52
5 27 13 81 16 119 4 39 10 86 12 105 3 19 6 250 8 512 2 344 -1 483 -9 500
-11 22 -16 23 -146 24 -74 0 -161 -3 -192 -8z m211 -107 c12 -7 26 -24 32 -39
11 -30 15 -727 5 -862 -10 -121 -25 -213 -38 -221 -6 -4 -36 -10 -67 -13 -127
-15 -260 -36 -287 -47 l-22 -8 0 307 c0 169 -3 380 -7 468 -11 228 14 318 105
378 70 46 223 66 279 37z"/>
<path d="M4139 1256 c-2 -2 -60 -7 -129 -11 -69 -3 -141 -8 -160 -10 -19 -1
-80 -6 -135 -9 -55 -4 -122 -9 -150 -11 -153 -14 -268 -24 -325 -30 -25 -3
-81 -7 -125 -10 -44 -3 -89 -7 -100 -9 -11 -2 -63 -7 -115 -11 -52 -3 -106 -8
-120 -10 -14 -2 -72 -7 -130 -10 -58 -3 -130 -8 -160 -10 -124 -10 -389 -18
-930 -30 -140 -3 -304 -8 -365 -11 -396 -17 -659 -20 -735 -10 -123 17 -214
47 -302 99 -35 20 -38 21 -56 4 -10 -9 -19 -23 -19 -30 -1 -6 -4 -41 -7 -77
-11 -108 -14 -473 -5 -497 10 -26 50 -31 68 -9 7 8 21 13 31 11 10 -2 45 -6
77 -10 32 -3 87 -10 123 -15 178 -25 755 -33 1188 -17 384 15 454 17 777 22
176 3 336 7 355 10 19 2 85 7 145 11 163 10 230 16 365 29 25 3 68 7 95 10 28
2 73 7 100 10 28 3 82 7 120 10 39 3 86 7 105 10 19 2 69 7 110 11 41 3 82 7
90 9 8 2 53 6 99 10 47 4 92 8 101 10 9 2 56 6 106 10 49 4 105 9 124 11 61 6
383 5 445 -2 106 -11 189 -33 206 -56 13 -16 20 -18 35 -10 12 6 27 7 43 0 48
-18 84 6 97 63 2 10 6 29 9 42 18 78 30 305 21 390 -11 99 -3 94 -196 114 -54
5 -766 14 -771 9z m212 -246 c39 -69 82 -142 95 -162 33 -52 31 -66 -7 -62
-34 4 -35 5 -158 174 -46 63 -95 127 -108 142 l-26 27 44 3 c90 7 82 13 160
-122z m106 50 c29 -41 52 -78 53 -82 0 -7 60 -108 98 -165 14 -22 13 -23 -16
-23 -26 0 -39 13 -109 108 -87 117 -108 148 -142 204 l-22 37 43 -2 c41 -3 45
-6 95 -77z m181 -20 c89 -157 93 -163 123 -207 16 -23 29 -44 29 -48 0 -3 -18
-5 -40 -3 -38 2 -43 6 -110 97 -97 133 -180 251 -180 257 0 3 28 4 62 2 l62
-3 54 -95z m144 27 c26 -39 70 -115 99 -167 28 -52 62 -109 75 -126 l23 -32
-42 10 c-23 5 -45 12 -48 16 -4 4 -50 72 -102 152 -53 80 -100 150 -104 155
-5 6 -16 22 -26 38 l-17 27 47 0 48 0 47 -73z m161 -61 c44 -87 67 -145 67
-167 l0 -34 -20 25 c-11 14 -20 28 -20 32 0 4 -19 35 -43 70 -23 35 -63 96
-90 136 l-47 72 43 0 42 0 68 -134z m64 62 c2 -38 1 -68 -1 -68 -2 0 -17 21
-32 48 -15 26 -34 57 -42 70 -15 23 -15 23 29 20 l43 -3 3 -67z m-861 -6 c42
-54 158 -221 186 -268 5 -7 -12 -11 -52 -12 l-59 -1 -74 92 c-83 104 -179 242
-171 250 3 2 30 5 62 6 l57 1 51 -68z m-208 27 c9 -17 58 -94 108 -170 79
-121 88 -139 70 -140 -46 -3 -71 3 -81 17 -13 20 -38 49 -79 94 -37 40 -176
215 -176 221 0 3 32 6 70 7 70 3 71 3 88 -29z m-154 -64 c33 -48 87 -124 122
-170 l63 -83 -48 -4 c-27 -1 -54 -1 -62 0 -13 4 -69 69 -216 254 -35 43 -63
79 -63 81 0 1 33 4 73 5 l73 3 58 -86z m-207 11 c26 -36 71 -97 98 -137 28
-40 62 -87 78 -105 l27 -32 -44 -3 -43 -4 -64 90 c-35 49 -90 127 -122 172
l-58 83 40 0 c38 0 43 -4 88 -64z m-272 -37 c31 -48 84 -124 120 -170 35 -46
60 -86 54 -89 -5 -4 -29 -7 -53 -9 -39 -2 -46 2 -70 34 -15 19 -49 60 -76 92
-28 31 -75 93 -105 137 l-56 81 53 5 c29 3 59 5 66 6 7 0 37 -39 67 -87z m169
-23 c42 -63 76 -119 76 -125 0 -6 4 -11 8 -11 5 0 14 -10 20 -22 7 -13 19 -33
27 -44 15 -20 14 -22 -8 -26 -20 -4 -37 10 -103 85 -84 96 -194 237 -194 250
0 4 22 7 49 7 l49 0 76 -114z m-363 32 c23 -40 76 -121 116 -180 67 -99 72
-108 51 -109 -13 0 -35 -3 -49 -5 -22 -4 -37 9 -102 80 -92 101 -209 254 -203
265 3 4 33 9 68 10 34 1 65 4 67 7 7 7 7 7 52 -68z m-2895 42 c8 0 27 -13 42
-28 230 -241 317 -334 315 -339 -3 -8 -20 -11 -85 -14 -45 -3 -50 -1 -64 27
-8 16 -37 52 -63 79 -26 28 -80 90 -119 138 -54 66 -72 96 -72 119 0 23 4 29
16 24 9 -3 22 -6 30 -6z m2745 -120 c46 -69 100 -142 119 -163 57 -62 57 -67
8 -67 -40 0 -47 4 -116 78 -96 101 -218 263 -207 274 3 3 29 4 59 4 l54 -1 83
-125z m-217 102 c10 -29 162 -259 196 -295 33 -35 37 -47 18 -48 -7 0 -32 -3
-56 -5 -28 -3 -41 -1 -37 6 8 13 -4 30 -96 131 -150 165 -188 214 -173 219 8
3 43 7 78 8 56 3 65 0 70 -16z m-179 -25 c38 -65 214 -296 234 -307 35 -18 24
-27 -38 -29 l-59 -1 -125 124 c-109 107 -187 202 -187 227 0 9 31 13 106 16
47 2 52 0 69 -30z m-205 -12 c18 -54 153 -224 242 -303 25 -23 13 -32 -42 -32
-39 0 -54 5 -77 28 -16 15 -71 65 -122 112 -52 47 -125 114 -164 150 l-70 65
74 5 c162 11 146 13 159 -25z m-1939 16 c9 -1 23 -16 30 -33 7 -18 73 -93 147
-165 120 -120 130 -133 105 -133 -30 0 -67 32 -281 238 l-107 103 45 -5 c25
-3 52 -5 61 -5z m1998 -339 c29 -10 5 -17 -56 -17 l-68 0 -29 45 c-65 102
-225 285 -259 297 -19 6 -16 8 18 13 l40 6 171 -170 c95 -94 177 -172 183
-174z m-1708 240 c47 -48 118 -117 157 -154 38 -38 69 -68 69 -69 -1 0 -28 -2
-60 -3 -51 -1 -61 2 -77 21 -10 13 -42 39 -71 59 -99 66 -225 180 -248 223 -9
16 -4 17 67 14 l77 -4 86 -87z m1256 74 c53 -46 250 -321 235 -329 -19 -10
-88 3 -97 19 -22 37 -163 221 -208 270 -26 29 -42 54 -36 56 34 11 83 4 106
-16z m-1027 -44 c25 -27 63 -71 85 -98 22 -27 61 -72 87 -100 27 -28 48 -53
48 -55 0 -3 -25 -4 -56 -4 -51 1 -61 6 -141 65 -88 65 -265 229 -259 239 2 3
46 5 98 3 l93 -2 45 -48z m549 18 c41 -32 71 -67 174 -202 l67 -88 -45 0 c-44
0 -47 2 -172 128 -71 70 -138 141 -151 159 l-22 32 27 3 c53 6 85 -2 122 -32z
m219 -75 c40 -60 90 -130 111 -155 54 -65 55 -67 15 -67 -32 0 -40 8 -121 111
-48 61 -111 134 -140 162 -28 29 -50 54 -48 56 3 2 28 4 57 4 l53 -1 73 -110z
m116 73 c24 -24 83 -100 130 -170 l85 -128 -47 0 c-43 0 -50 3 -66 31 -22 38
-210 274 -225 283 -24 15 -9 26 33 26 39 0 51 -6 90 -42z m-704 -16 c14 -25
64 -95 112 -154 74 -91 84 -108 65 -107 -44 1 -113 57 -218 174 -58 66 -105
122 -104 125 2 3 29 6 62 7 l58 2 25 -47z m213 -14 c44 -61 76 -98 179 -204
l50 -52 -53 3 c-30 2 -63 4 -74 4 -42 2 -199 158 -264 262 l-30 49 74 0 73 0
45 -62z m-956 -254 c17 -12 16 -13 -7 -15 -14 0 -38 -2 -53 -3 -21 -2 -36 5
-57 28 -96 104 -102 114 -96 176 2 19 4 46 5 60 1 20 20 -1 96 -104 52 -71
103 -135 112 -142z"/>
</g>
</svg>
